<svg xmlns="http://www.w3.org/2000/svg" xmlns:svg="http://www.w3.org/2000/svg" id="svg36" width="292.667" height="227.667" enable-background="new 0 0 512 512" version="1.1" viewBox="0 0 292.667 227.667" xml:space="preserve"><metadata id="metadata42"/><g id="Layer_4" transform="translate(-109,-143.333)"><path id="path19" d="M 109,371 V 152.333 c 0,-6.627 5.373,-12 12,-12 h 274.667 c 6.627,0 12,5.373 12,12 V 371" style="fill:#f2f2f2"/><path id="path21" d="M 109,371 V 155.333 c 0,-6.627 5.373,-12 12,-12 h 268.667 c 6.627,0 12,5.373 12,12 V 371" style="fill:#202c3c"/><path id="path23" d="m 109,164 v -11.667 c 0,-6.627 5.373,-12 12,-12 h 274.667 c 6.627,0 12,5.373 12,12 V 164" style="fill:#fff"/><circle id="circle25" cx="118.625" cy="152.125" r="3.5" style="fill:#c61934"/><circle id="circle27" cx="128.625" cy="152.125" r="3.5" style="fill:#fbd50a"/><circle id="circle29" cx="138.625" cy="152.125" r="3.5" style="fill:#39b54a"/></g></svg>